<mxfile host="app.diagrams.net" modified="2024-06-25T06:57:17.695Z" agent="Mozilla/5.0 (Windows NT 10.0; Win64; x64) AppleWebKit/537.36 (KHTML, like Gecko) Chrome/126.0.0.0 Safari/537.36 Edg/126.0.0.0" etag="YSsJPHjV3BmjvLwNCvXI" version="24.5.2" type="device">
  <diagram name="Page-1" id="FWSXzk0HMMvp-9RqmxZy">
    <mxGraphModel dx="971" dy="516" grid="1" gridSize="10" guides="1" tooltips="1" connect="1" arrows="1" fold="1" page="1" pageScale="1" pageWidth="827" pageHeight="1169" math="0" shadow="0">
      <root>
        <mxCell id="0" />
        <mxCell id="1" parent="0" />
        <mxCell id="mPL5s44J1FuhRWKnFu4T-6" value="" style="shape=umlLifeline;perimeter=lifelinePerimeter;whiteSpace=wrap;html=1;container=1;dropTarget=0;collapsible=0;recursiveResize=0;outlineConnect=0;portConstraint=eastwest;newEdgeStyle={&quot;curved&quot;:0,&quot;rounded&quot;:0};participant=umlActor;" vertex="1" parent="1">
          <mxGeometry x="65" y="120" width="20" height="440" as="geometry" />
        </mxCell>
        <mxCell id="mPL5s44J1FuhRWKnFu4T-7" value="Auth Controller" style="shape=umlLifeline;perimeter=lifelinePerimeter;whiteSpace=wrap;html=1;container=1;dropTarget=0;collapsible=0;recursiveResize=0;outlineConnect=0;portConstraint=eastwest;newEdgeStyle={&quot;curved&quot;:0,&quot;rounded&quot;:0};" vertex="1" parent="1">
          <mxGeometry x="205" y="120" width="100" height="260" as="geometry" />
        </mxCell>
        <mxCell id="mPL5s44J1FuhRWKnFu4T-8" value="" style="html=1;points=[[0,0,0,0,5],[0,1,0,0,-5],[1,0,0,0,5],[1,1,0,0,-5]];perimeter=orthogonalPerimeter;outlineConnect=0;targetShapes=umlLifeline;portConstraint=eastwest;newEdgeStyle={&quot;curved&quot;:0,&quot;rounded&quot;:0};" vertex="1" parent="mPL5s44J1FuhRWKnFu4T-7">
          <mxGeometry x="45" y="80" width="10" height="120" as="geometry" />
        </mxCell>
        <mxCell id="mPL5s44J1FuhRWKnFu4T-10" value="token" style="html=1;verticalAlign=bottom;endArrow=block;endSize=6;curved=0;rounded=0;exitX=0;exitY=1;exitDx=0;exitDy=-5;endFill=1;" edge="1" parent="1">
          <mxGeometry relative="1" as="geometry">
            <mxPoint x="74.81034482758628" y="307" as="targetPoint" />
            <mxPoint x="250" y="306.9999999999999" as="sourcePoint" />
            <Array as="points">
              <mxPoint x="185" y="307" />
            </Array>
          </mxGeometry>
        </mxCell>
        <mxCell id="mPL5s44J1FuhRWKnFu4T-9" value="request" style="html=1;verticalAlign=bottom;endArrow=block;curved=0;rounded=0;" edge="1" parent="1">
          <mxGeometry relative="1" as="geometry">
            <mxPoint x="74.81034482758628" y="216" as="sourcePoint" />
            <mxPoint x="249.9999999999999" y="216" as="targetPoint" />
          </mxGeometry>
        </mxCell>
        <mxCell id="mPL5s44J1FuhRWKnFu4T-11" value="Action Controller" style="shape=umlLifeline;perimeter=lifelinePerimeter;whiteSpace=wrap;html=1;container=1;dropTarget=0;collapsible=0;recursiveResize=0;outlineConnect=0;portConstraint=eastwest;newEdgeStyle={&quot;curved&quot;:0,&quot;rounded&quot;:0};" vertex="1" parent="1">
          <mxGeometry x="675" y="120" width="100" height="440" as="geometry" />
        </mxCell>
        <mxCell id="mPL5s44J1FuhRWKnFu4T-15" value="" style="html=1;points=[[0,0,0,0,5],[0,1,0,0,-5],[1,0,0,0,5],[1,1,0,0,-5]];perimeter=orthogonalPerimeter;outlineConnect=0;targetShapes=umlLifeline;portConstraint=eastwest;newEdgeStyle={&quot;curved&quot;:0,&quot;rounded&quot;:0};" vertex="1" parent="mPL5s44J1FuhRWKnFu4T-11">
          <mxGeometry x="45" y="280" width="10" height="130" as="geometry" />
        </mxCell>
        <mxCell id="mPL5s44J1FuhRWKnFu4T-17" value="unauthorised-RBAC&amp;nbsp;" style="html=1;verticalAlign=bottom;endArrow=open;endSize=8;curved=0;rounded=0;dashed=1;endFill=0;" edge="1" parent="1">
          <mxGeometry relative="1" as="geometry">
            <mxPoint x="74.81034482758628" y="521" as="targetPoint" />
            <mxPoint x="720" y="521" as="sourcePoint" />
          </mxGeometry>
        </mxCell>
        <mxCell id="mPL5s44J1FuhRWKnFu4T-19" value="request" style="html=1;verticalAlign=bottom;endArrow=block;curved=0;rounded=0;entryX=0;entryY=0;entryDx=0;entryDy=5;entryPerimeter=0;" edge="1" target="mPL5s44J1FuhRWKnFu4T-18" parent="1" source="mPL5s44J1FuhRWKnFu4T-8">
          <mxGeometry relative="1" as="geometry">
            <mxPoint x="395" y="230" as="sourcePoint" />
            <mxPoint x="435" y="215" as="targetPoint" />
          </mxGeometry>
        </mxCell>
        <mxCell id="mPL5s44J1FuhRWKnFu4T-20" value="token" style="html=1;verticalAlign=bottom;endArrow=block;endSize=6;curved=0;rounded=0;exitX=0;exitY=0.5;exitDx=0;exitDy=0;endFill=1;" edge="1" parent="1">
          <mxGeometry relative="1" as="geometry">
            <mxPoint x="259.9999999999999" y="300" as="targetPoint" />
            <mxPoint x="334.9999999999999" y="300" as="sourcePoint" />
            <Array as="points">
              <mxPoint x="335" y="300" />
            </Array>
          </mxGeometry>
        </mxCell>
        <mxCell id="mPL5s44J1FuhRWKnFu4T-21" value="Token Factory" style="shape=umlLifeline;perimeter=lifelinePerimeter;whiteSpace=wrap;html=1;container=1;dropTarget=0;collapsible=0;recursiveResize=0;outlineConnect=0;portConstraint=eastwest;newEdgeStyle={&quot;curved&quot;:0,&quot;rounded&quot;:0};" vertex="1" parent="1">
          <mxGeometry x="385" y="120" width="100" height="260" as="geometry" />
        </mxCell>
        <mxCell id="mPL5s44J1FuhRWKnFu4T-18" value="" style="html=1;points=[[0,0,0,0,5],[0,1,0,0,-5],[1,0,0,0,5],[1,1,0,0,-5]];perimeter=orthogonalPerimeter;outlineConnect=0;targetShapes=umlLifeline;portConstraint=eastwest;newEdgeStyle={&quot;curved&quot;:0,&quot;rounded&quot;:0};" vertex="1" parent="mPL5s44J1FuhRWKnFu4T-21">
          <mxGeometry x="45" y="90" width="10" height="140" as="geometry" />
        </mxCell>
        <mxCell id="mPL5s44J1FuhRWKnFu4T-22" value="" style="html=1;points=[[0,0,0,0,5],[0,1,0,0,-5],[1,0,0,0,5],[1,1,0,0,-5]];perimeter=orthogonalPerimeter;outlineConnect=0;targetShapes=umlLifeline;portConstraint=eastwest;newEdgeStyle={&quot;curved&quot;:0,&quot;rounded&quot;:0};gradientColor=none;gradientDirection=north;fillColor=none;strokeColor=default;fillStyle=hatch;" vertex="1" parent="mPL5s44J1FuhRWKnFu4T-21">
          <mxGeometry x="45" y="118" width="10" height="50" as="geometry" />
        </mxCell>
        <mxCell id="mPL5s44J1FuhRWKnFu4T-23" value="request&lt;div&gt;validation&lt;/div&gt;" style="html=1;align=left;spacingLeft=2;endArrow=block;rounded=0;edgeStyle=orthogonalEdgeStyle;curved=0;rounded=0;" edge="1" parent="mPL5s44J1FuhRWKnFu4T-21">
          <mxGeometry relative="1" as="geometry">
            <mxPoint x="50" y="104" as="sourcePoint" />
            <Array as="points">
              <mxPoint x="80" y="134" />
            </Array>
            <mxPoint x="55" y="134" as="targetPoint" />
          </mxGeometry>
        </mxCell>
        <mxCell id="mPL5s44J1FuhRWKnFu4T-24" value="invalid request" style="html=1;verticalAlign=bottom;endArrow=open;dashed=1;endSize=6;curved=0;rounded=0;endFill=0;" edge="1" parent="1" source="mPL5s44J1FuhRWKnFu4T-18">
          <mxGeometry x="0.3795" relative="1" as="geometry">
            <mxPoint x="75" y="340" as="targetPoint" />
            <mxPoint x="395" y="340" as="sourcePoint" />
            <Array as="points">
              <mxPoint x="162.59" y="339.65999999999997" />
            </Array>
            <mxPoint as="offset" />
          </mxGeometry>
        </mxCell>
        <mxCell id="mPL5s44J1FuhRWKnFu4T-26" value="role mapping" style="html=1;whiteSpace=wrap;fontSize=9;" vertex="1" parent="1">
          <mxGeometry x="335" y="289" width="60" height="20" as="geometry" />
        </mxCell>
        <mxCell id="mPL5s44J1FuhRWKnFu4T-27" value="" style="endArrow=block;endFill=1;html=1;rounded=0;entryX=1;entryY=0.5;entryDx=0;entryDy=0;startArrow=none;startFill=0;" edge="1" parent="1">
          <mxGeometry width="160" relative="1" as="geometry">
            <mxPoint x="430" y="298" as="sourcePoint" />
            <mxPoint x="394.9999999999999" y="298" as="targetPoint" />
          </mxGeometry>
        </mxCell>
        <mxCell id="mPL5s44J1FuhRWKnFu4T-30" value="&lt;font style=&quot;font-size: 11px;&quot;&gt;Token Validation Handler&lt;/font&gt;" style="shape=umlLifeline;perimeter=lifelinePerimeter;whiteSpace=wrap;html=1;container=1;dropTarget=0;collapsible=0;recursiveResize=0;outlineConnect=0;portConstraint=eastwest;newEdgeStyle={&quot;curved&quot;:0,&quot;rounded&quot;:0};fontSize=8;" vertex="1" parent="1">
          <mxGeometry x="545" y="120" width="100" height="440" as="geometry" />
        </mxCell>
        <mxCell id="mPL5s44J1FuhRWKnFu4T-28" value="" style="html=1;points=[[0,0,0,0,5],[0,1,0,0,-5],[1,0,0,0,5],[1,1,0,0,-5]];perimeter=orthogonalPerimeter;outlineConnect=0;targetShapes=umlLifeline;portConstraint=eastwest;newEdgeStyle={&quot;curved&quot;:0,&quot;rounded&quot;:0};" vertex="1" parent="mPL5s44J1FuhRWKnFu4T-30">
          <mxGeometry x="45" y="260" width="10" height="80" as="geometry" />
        </mxCell>
        <mxCell id="mPL5s44J1FuhRWKnFu4T-31" value="request dispatch" style="html=1;verticalAlign=bottom;endArrow=block;curved=0;rounded=0;" edge="1" parent="1" source="mPL5s44J1FuhRWKnFu4T-28" target="mPL5s44J1FuhRWKnFu4T-15">
          <mxGeometry width="80" relative="1" as="geometry">
            <mxPoint x="605" y="430" as="sourcePoint" />
            <mxPoint x="705" y="430" as="targetPoint" />
          </mxGeometry>
        </mxCell>
        <mxCell id="mPL5s44J1FuhRWKnFu4T-32" value="invalid-token/unauthorised" style="html=1;verticalAlign=bottom;endArrow=open;dashed=1;endSize=8;curved=0;rounded=0;endFill=0;" edge="1" parent="1">
          <mxGeometry relative="1" as="geometry">
            <mxPoint x="75" y="450" as="targetPoint" />
            <mxPoint x="590" y="450" as="sourcePoint" />
          </mxGeometry>
        </mxCell>
        <mxCell id="mPL5s44J1FuhRWKnFu4T-33" value="response" style="html=1;verticalAlign=bottom;endArrow=block;endSize=6;curved=0;rounded=0;endFill=1;" edge="1" parent="1">
          <mxGeometry relative="1" as="geometry">
            <mxPoint x="74.81034482758628" y="495" as="targetPoint" />
            <mxPoint x="720" y="495" as="sourcePoint" />
            <Array as="points" />
          </mxGeometry>
        </mxCell>
        <mxCell id="mPL5s44J1FuhRWKnFu4T-34" value="token-gen" style="shape=umlFrame;whiteSpace=wrap;html=1;pointerEvents=0;width=70;height=15;fillColor=#e51400;fontColor=#ffffff;strokeColor=#B20000;" vertex="1" parent="1">
          <mxGeometry x="115" y="110" width="420" height="250" as="geometry" />
        </mxCell>
        <mxCell id="mPL5s44J1FuhRWKnFu4T-36" value="" style="endArrow=block;endFill=1;endSize=6;html=1;rounded=0;" edge="1" parent="1">
          <mxGeometry width="160" relative="1" as="geometry">
            <mxPoint x="75.00034482758628" y="410" as="sourcePoint" />
            <mxPoint x="590.19" y="410" as="targetPoint" />
          </mxGeometry>
        </mxCell>
        <mxCell id="mPL5s44J1FuhRWKnFu4T-37" value="request + bearer token" style="edgeLabel;html=1;align=center;verticalAlign=middle;resizable=0;points=[];" vertex="1" connectable="0" parent="mPL5s44J1FuhRWKnFu4T-36">
          <mxGeometry x="0.1997" y="3" relative="1" as="geometry">
            <mxPoint x="-50" y="-6" as="offset" />
          </mxGeometry>
        </mxCell>
      </root>
    </mxGraphModel>
  </diagram>
</mxfile>
